# xmcd
#
# Track frame offsets:
#	150
#	18695
#	41440
#	58252
#	78357
#	100697
#	119520
#	145732
#	166015
#	186390
#
# Disc length: 2787 seconds
# Revision: 0
# Processed by: cddbd v1.5.2PL0 Copyright (c) Steve Scherf et al.
# Submitted via: dBpowerAMP V12.0
#
DISCID=820ae10a
DTITLE=Keiko Matsui - Night Waltz
DYEAR=1991
DGENRE=Jazz
TTITLE0=Night Waltz
TTITLE1=Moonlight Sailor
TTITLE2=The White Gate
TTITLE3=Eyes Were Made to Cry
TTITLE4=Hope
TTITLE5=Lake of the White Owl
TTITLE6=Where Wildflowers Grow
TTITLE7=Grey Cliffs
TTITLE8=Seagull
TTITLE9=Morning Pasture
EXTD=
EXTT0=
EXTT1=
EXTT2=
EXTT3=
EXTT4=
EXTT5=
EXTT6=
EXTT7=
EXTT8=
EXTT9=
PLAYORDER=
